<svg xmlns="http://www.w3.org/2000/svg" viewBox="0 0 108 108" role="img" aria-label="ArnEQ icon">
  <rect width="108" height="108" rx="24" fill="#080B12"/>
  <path fill="#5B4CF6" d="M54 14c22.09 0 40 17.91 40 40S76.09 94 54 94 14 76.09 14 54s17.91-40 40-40z"/>
  <path fill="#7D70FF" d="M54 22c17.67 0 32 14.33 32 32S71.67 86 54 86 22 71.67 22 54s14.33-32 32-32z"/>
  <path fill="#FFFFFF" d="M36 58a4 4 0 0 1 4-4 4 4 0 0 1 4 4v12a4 4 0 0 1-4 4 4 4 0 0 1-4-4z"/>
  <path fill="#FFFFFF" d="M48 44a4 4 0 0 1 4-4 4 4 0 0 1 4 4v26a4 4 0 0 1-4 4 4 4 0 0 1-4-4z"/>
  <path fill="#0C1020" d="M60 50a4 4 0 0 1 4-4 4 4 0 0 1 4 4v20a4 4 0 0 1-4 4 4 4 0 0 1-4-4z"/>
  <path fill="#FFFFFF" d="M72 38a4 4 0 0 1 4-4 4 4 0 0 1 4 4v32a4 4 0 0 1-4 4 4 4 0 0 1-4-4z"/>
</svg>
