<svg xmlns="http://www.w3.org/2000/svg" viewBox="0 0 108 108" role="img" aria-label="ArnProxy icon">
  <defs>
    <linearGradient id="bg" x1="12" y1="10" x2="96" y2="98" gradientUnits="userSpaceOnUse">
      <stop stop-color="#2AF5FF"/>
      <stop offset=".42" stop-color="#7C3AED"/>
      <stop offset="1" stop-color="#14041F"/>
    </linearGradient>
    <linearGradient id="route" x1="24" y1="68" x2="84" y2="34" gradientUnits="userSpaceOnUse">
      <stop stop-color="#34D399"/>
      <stop offset=".48" stop-color="#38D5FF"/>
      <stop offset="1" stop-color="#C084FC"/>
    </linearGradient>
    <filter id="glow" x="-35%" y="-35%" width="170%" height="170%">
      <feGaussianBlur stdDeviation="3.4" result="blur"/>
      <feMerge>
        <feMergeNode in="blur"/>
        <feMergeNode in="SourceGraphic"/>
      </feMerge>
    </filter>
  </defs>
  <rect x="10" y="10" width="88" height="88" rx="26" fill="#070214"/>
  <rect x="10" y="10" width="88" height="88" rx="26" fill="url(#bg)" opacity=".92"/>
  <path d="M24 74V45c0-11 8-19 19-19h6" fill="none" stroke="#ECFEFF" stroke-width="7" stroke-linecap="round" opacity=".9" filter="url(#glow)"/>
  <path d="M84 34v29c0 11-8 19-19 19h-6" fill="none" stroke="#ECFEFF" stroke-width="7" stroke-linecap="round" opacity=".9" filter="url(#glow)"/>
  <path d="M47 18l14 14-14 14" fill="none" stroke="url(#route)" stroke-width="8" stroke-linecap="round" stroke-linejoin="round"/>
  <path d="M61 90L47 76l14-14" fill="none" stroke="url(#route)" stroke-width="8" stroke-linecap="round" stroke-linejoin="round"/>
  <circle cx="33" cy="68" r="8" fill="#08111F" stroke="#B7F9FF" stroke-width="4"/>
  <circle cx="75" cy="40" r="8" fill="#08111F" stroke="#E9D5FF" stroke-width="4"/>
  <path d="M54 38l16 8v11c0 12-6.8 20.3-16 25-9.2-4.7-16-13-16-25V46l16-8z" fill="#070214" opacity=".66"/>
  <path d="M48 58l4.4 4.4L61 52" fill="none" stroke="#34D399" stroke-width="5" stroke-linecap="round" stroke-linejoin="round"/>
</svg>
