<svg xmlns="http://www.w3.org/2000/svg" viewBox="0 0 108 108" role="img" aria-label="Net Scanner icon">
  <rect x="18" y="18" width="72" height="72" rx="9" fill="#2563EB"/>
  <path d="M64 18h17c4.97 0 9 4.03 9 9v17c0 25.41-20.59 46-46 46H27c-4.97 0-9-4.03-9-9V64c0-25.41 20.59-46 46-46z" fill="#14B8A6" opacity=".18"/>
  <circle cx="32" cy="34" r="4" fill="#fff"/>
  <circle cx="54" cy="54" r="5.5" fill="#fff"/>
  <path d="M54 41a13 13 0 1 1-.01 0M54 28a26 26 0 1 1-.01 0M54 54l15-15" fill="none" stroke="#fff" stroke-width="4" stroke-linecap="round"/>
  <path d="M70 79l5.2-14h3.6L84 79h-3.4l-1.1-3h-5l-1.1 3H70zm5.4-5.8h3.2L77 68.6l-1.6 4.6z" fill="#fff"/>
</svg>
